<svg width="11" height="9" viewBox="0 0 11 9" fill="none" xmlns="http://www.w3.org/2000/svg">
<path d="M8.07812 0C7.48122 0 6.93397 0.175301 6.45161 0.521044C5.98916 0.852511 5.68126 1.27469 5.5 1.58169C5.31874 1.27467 5.01084 0.852511 4.54839 0.521044C4.06603 0.175301 3.51878 0 2.92188 0C1.25615 0 0 1.26273 0 2.93723C0 4.74627 1.56713 5.98398 3.93957 7.85772C4.34244 8.17592 4.79909 8.5366 5.27373 8.92127C5.33629 8.97204 5.41664 9 5.5 9C5.58336 9 5.66371 8.97204 5.72627 8.92129C6.20095 8.53656 6.65758 8.1759 7.06069 7.85752C9.43287 5.98398 11 4.74627 11 2.93723C11 1.26273 9.74385 0 8.07812 0Z" fill="white"/>
</svg>
