<svg width="10" height="8" viewBox="0 0 10 8" fill="none" xmlns="http://www.w3.org/2000/svg">
<path d="M4.43945 0.368351L2.62464 1.72692H0.967559C0.694085 1.72692 0.470703 1.9503 0.470703 2.22376V5.68753C0.470703 5.96101 0.694085 6.18438 0.967559 6.18438H2.62464L4.43945 7.54294C4.77113 7.79137 5.23482 7.55919 5.23482 7.14492V0.765022C5.23482 0.352105 4.76233 0.119923 4.43945 0.368351Z" fill="white"/>
<path d="M6.83392 1.91536C6.66943 1.75087 6.39528 1.75087 6.23079 1.91536C6.0663 2.07985 6.0663 2.35399 6.23079 2.5185C7.02278 3.31049 7.02278 4.59663 6.23079 5.38929C6.0663 5.55378 6.0663 5.82792 6.23079 5.99242C6.31608 6.07772 6.42574 6.11426 6.52931 6.11426C6.63288 6.11426 6.74863 6.07162 6.82782 5.98633C7.96166 4.87144 7.96166 3.0431 6.83392 1.91536Z" fill="white"/>
<path d="M7.30891 0.959199C7.14442 1.12369 7.14442 1.39783 7.30891 1.56234C7.9486 2.20203 8.30262 3.04952 8.30262 3.95725C8.30262 4.86567 7.94927 5.71249 7.30891 6.35216C7.14442 6.51665 7.14442 6.7908 7.30891 6.9553C7.39421 7.0406 7.50386 7.08324 7.60743 7.08324C7.71709 7.08324 7.82675 7.04059 7.90595 6.9614C8.70403 6.16332 9.14944 5.0965 9.14944 3.96268C9.14944 2.82886 8.7108 1.7688 7.90595 0.963958C7.74755 0.794716 7.4795 0.794709 7.30891 0.959199Z" fill="white"/>
</svg>
