<svg width="13" height="13" viewBox="0 0 13 13" fill="none" xmlns="http://www.w3.org/2000/svg">
<path d="M0.433447 6.93356H2.60913L2.68024 7.28075C2.78014 7.7685 2.97061 8.22831 3.24999 8.64832L3.4447 8.94301L1.90393 10.4842C1.82181 10.5663 1.7761 10.6747 1.7761 10.7899C1.7761 10.9051 1.82181 11.0151 1.90393 11.0956C2.05377 11.2455 2.36785 11.2455 2.51684 11.0956L4.05762 9.55441L4.35223 9.74918C4.77298 10.0286 5.23182 10.22 5.71945 10.3191L6.06655 10.3902V12.5664C6.06655 12.8052 6.26127 13 6.5 13C6.73874 13 6.93345 12.8052 6.93345 12.5664V10.3902L7.28055 10.3191C7.76818 10.2191 8.22787 10.0286 8.64777 9.74918L8.94239 9.55441L10.4832 11.0956C10.633 11.2455 10.9471 11.2455 11.0961 11.0956C11.1782 11.0134 11.2239 10.9051 11.2239 10.7899C11.2239 10.6747 11.1782 10.5646 11.0961 10.4842L9.5553 8.94301L9.75001 8.64832C10.0294 8.22747 10.2207 7.7685 10.3198 7.28075L10.3909 6.93356H12.5666C12.8053 6.93356 13 6.7388 13 6.5C13 6.26121 12.8053 6.06644 12.5666 6.06644H10.3909L10.3198 5.71925C10.2199 5.2315 10.0294 4.77169 9.75001 4.35168L9.5553 4.05699L11.0961 2.51582C11.1782 2.43368 11.2239 2.32529 11.2239 2.21012C11.2239 2.09495 11.1782 1.98486 11.0961 1.90442C10.9462 1.75453 10.6322 1.75453 10.4832 1.90442L8.94239 3.44558L8.64777 3.25082C8.22703 2.97137 7.76818 2.78 7.28055 2.68093L6.93345 2.6098V0.433558C6.93345 0.194754 6.73873 0 6.5 0C6.26126 0 6.06655 0.194763 6.06655 0.433558V2.6098L5.71945 2.68093C5.23182 2.78085 4.77213 2.97137 4.35223 3.25082L4.05762 3.44558L2.51684 1.90442C2.367 1.75453 2.05293 1.75453 1.90393 1.90442C1.82181 1.98656 1.7761 2.09495 1.7761 2.21012C1.7761 2.32529 1.82181 2.43537 1.90393 2.51582L3.4447 4.05699L3.24999 4.35168C2.97061 4.77253 2.77929 5.2315 2.68024 5.71925L2.60913 6.06644H0.433447C0.194704 6.06644 0 6.26121 0 6.5C0 6.7388 0.194713 6.93356 0.433447 6.93356ZM6.5017 3.46509C8.17454 3.46509 9.53582 4.82673 9.53582 6.5C9.53582 8.17327 8.17454 9.53491 6.5017 9.53491C4.82885 9.53491 3.46757 8.17327 3.46757 6.5C3.46757 4.82673 4.82885 3.46509 6.5017 3.46509Z" fill="#FFA600"/>
</svg>
